<svg width="150" height="150" viewBox="0 0 150 150" fill="none" xmlns="http://www.w3.org/2000/svg">
<rect width="150" height="150" fill="none"/>
<path d="M0 30C0 13.4315 13.4315 0 30 0H50V50H0V30Z" fill="#6EE7B7"/>
<path d="M50 0H100V50H50V0Z" fill="#34D399"/>
<path d="M0 50H50V100H0V50Z" fill="#34D399"/>
<path d="M50 50H100V100H50V50Z" fill="#10B981"/>
<path d="M100 0H120C136.569 0 150 13.4315 150 30V50H100V0Z" fill="#10B981"/>
<path d="M100 50H150V100H100V50Z" fill="#059669"/>
<path d="M0 100H50V150H30C13.4315 150 0 136.569 0 120V100Z" fill="#10B981"/>
<path d="M50 100H100V150H50V100Z" fill="#059669"/>
<path d="M100 100H150V120C150 136.569 136.569 150 120 150H100V100Z" fill="#047857"/>
<path d="M64.829 31.3395C69.4291 22.8868 81.5706 22.8868 86.1708 31.3395C88.9206 36.3918 94.8413 38.8214 100.347 37.1539L101.833 36.7037C110.655 34.0319 118.807 42.4479 115.855 51.1803C114.03 56.5812 116.504 62.4995 121.628 64.9986C130.123 69.1425 130.123 81.2551 121.628 85.399C116.504 87.8982 114.03 93.8165 115.855 99.2174C118.807 107.95 110.655 116.366 101.833 113.694L100.347 113.244C94.8414 111.576 88.9206 114.006 86.1708 119.058C81.5706 127.511 69.4291 127.511 64.829 119.058C62.0792 114.006 56.1584 111.576 50.6532 113.244L49.1669 113.694C40.345 116.366 32.1923 107.95 35.1434 99.2174C36.9689 93.8165 34.496 87.8982 29.372 85.399C20.876 81.2552 20.876 69.1425 29.372 64.9986C34.496 62.4995 36.9689 56.5812 35.1434 51.1803C32.1924 42.4479 40.345 34.0317 49.1669 36.7037L50.6532 37.1539C56.1584 38.8213 62.0792 36.3918 64.829 31.3395ZM75.9462 50.1695C62.3701 50.1698 51.3644 61.1756 51.3641 74.7516C51.3641 88.3278 62.37 99.3343 75.9462 99.3346C89.5226 99.3346 100.529 88.328 100.529 74.7516C100.529 61.1754 89.5224 50.1695 75.9462 50.1695Z" fill="#022C22"/>
</svg>
