<svg width="150" height="150" viewBox="0 0 150 150" fill="none" xmlns="http://www.w3.org/2000/svg">
<rect width="150" height="150" fill="none"/>
<path d="M0 30C0 13.4315 13.4315 0 30 0H50V50H0V30Z" fill="#6EE7B7"/>
<path d="M50 0H100V50H50V0Z" fill="#34D399"/>
<path d="M0 50H50V100H0V50Z" fill="#34D399"/>
<path d="M50 50H100V100H50V50Z" fill="#10B981"/>
<path d="M100 0H120C136.569 0 150 13.4315 150 30V50H100V0Z" fill="#10B981"/>
<path d="M100 50H150V100H100V50Z" fill="#059669"/>
<path d="M0 100H50V150H30C13.4315 150 0 136.569 0 120V100Z" fill="#10B981"/>
<path d="M50 100H100V150H50V100Z" fill="#059669"/>
<path d="M100 100H150V120C150 136.569 136.569 150 120 150H100V100Z" fill="#047857"/>
<path d="M59.8238 16.8995C61.8648 16.0541 64.2047 17.0233 65.0501 19.0643L67.5035 24.9874C68.202 26.6734 69.9523 27.6546 71.7721 27.5172C74.1978 27.3339 76.6178 27.339 79.0117 27.5225C80.8316 27.6618 82.5826 26.6802 83.2812 24.994L85.7378 19.0634C86.5833 17.0228 88.9227 16.0537 90.9634 16.8989L105.746 23.0222C107.787 23.8679 108.756 26.2075 107.91 28.2483L105.454 34.1776C104.755 35.8641 105.3 37.797 106.686 38.9854C108.508 40.5484 110.223 42.2559 111.809 44.1008C112.998 45.4848 114.93 46.0287 116.616 45.3304L122.539 42.877C124.58 42.0316 126.92 43.0008 127.765 45.0417L133.888 59.8238C134.733 61.8648 133.764 64.2047 131.723 65.0501L125.8 67.5035C124.114 68.202 123.133 69.9523 123.27 71.7721C123.454 74.1979 123.449 76.6178 123.265 79.0117C123.125 80.8318 124.107 82.5827 125.794 83.2812L131.724 85.7378C133.765 86.5832 134.734 88.9227 133.889 90.9634L127.765 105.746C126.92 107.787 124.58 108.756 122.54 107.911L116.609 105.455C114.923 104.756 112.99 105.299 111.802 106.685C110.239 108.507 108.531 110.222 106.686 111.808C105.302 112.997 104.759 114.929 105.457 116.615L107.911 122.539C108.756 124.58 107.787 126.92 105.746 127.765L90.9637 133.888C88.9228 134.733 86.5829 133.764 85.7375 131.723L83.2837 125.799C82.5852 124.113 80.8349 123.132 79.0151 123.269C76.5894 123.453 74.1697 123.448 71.7758 123.265C69.9556 123.126 68.2039 124.107 67.5054 125.794L65.0494 131.723C64.2042 133.764 61.865 134.734 59.8241 133.889L45.0411 127.765C43.0004 126.92 42.0314 124.58 42.8765 122.54L45.333 116.609C46.0314 114.923 45.4873 112.99 44.1019 111.802C42.2795 110.239 40.5646 108.532 38.979 106.687C37.7894 105.303 35.8579 104.759 34.1718 105.457L28.2487 107.911C26.2077 108.756 23.8679 107.787 23.0225 105.746L16.8995 90.9637C16.0541 88.9228 17.0233 86.5829 19.0643 85.7375L24.9874 83.2841C26.6734 82.5856 27.6547 80.8353 27.5172 79.0155C27.3338 76.5895 27.3387 74.169 27.5221 71.7749C27.6613 69.955 26.679 68.2043 24.9927 67.5058L19.0634 65.0498C17.0229 64.2043 16.0538 61.8649 16.8989 59.8241L23.0222 45.0411C23.8677 43.0005 26.2072 42.0314 28.2479 42.8765L34.1772 45.3325C35.8635 46.031 37.796 45.4876 38.9845 44.1023C40.5477 42.2797 42.2557 40.5647 44.1008 38.979C45.4849 37.7895 46.0287 35.8579 45.3304 34.1718L42.8769 28.2487C42.0315 26.2077 43.0008 23.8679 45.0417 23.0225L59.8238 16.8995ZM70.8016 64.3072C64.6786 66.8434 61.771 73.863 64.3072 79.986C66.8434 86.1089 73.863 89.0165 79.986 86.4803C86.1089 83.9441 89.0165 76.9245 86.4803 70.8016C83.9441 64.6786 76.9245 61.771 70.8016 64.3072Z" fill="#022C22"/>
</svg>
